<svg version="1.0" xmlns="http://www.w3.org/2000/svg" width="682.667" height="682.667" viewBox="0 0 512 512">
  <path d="M89 98c-1.8 1.8-2 3.3-2 15.9v13.8l-5.5.6c-12.3 1.3-23.8 9.6-29.2 21.2-2.6 5.7-2.8 6.9-3.1 22.1l-.4 16.2-9.6.4c-11.4.5-16 2.4-21.6 8.9-6.6 7.7-6.7 8.9-6.4 54 .3 44.7.1 43.3 7.2 50.7 5.4 5.8 9.9 7.5 20.9 8l9.7.4V325h-3c-1.7 0-3.9.9-5 2-1.9 1.9-2 3.3-2 25s.1 23.1 2 25c1.8 1.8 3.3 2 19 2h17l2.6 5.2c3.8 7.5 16.3 19.6 24.9 24 10.8 5.6 17.5 7.2 29.5 7.2s18.7-1.6 29.5-7.2c8.6-4.4 21.1-16.5 24.9-24l2.6-5.2h161.7l2.8 5.2c6.6 12.3 22.9 24.9 38 29.4 8.2 2.5 24.8 2.5 33 0 15.2-4.5 31.9-17.5 37.9-29.4l2.6-5.2h15.4c13.5 0 15.5-.2 16.9-1.8 1.5-1.6 1.7-4.9 1.7-25 0-21.9-.1-23.3-2-25.2-1.1-1.1-3.3-2-4.9-2h-3l-.3-34.3c-.3-30.6-.5-34.6-2.2-38.2-4.8-10.5-13.4-18.3-23.4-21.1-2.6-.7-24.9-3.4-49.7-5.9-24.7-2.5-46.4-4.8-48.1-5-3-.5-3.5-1.4-17.4-32.3-18.4-40.8-20.2-44.4-25.1-49.3-5.3-5.3-13.8-9.2-21.1-9.7l-5.8-.4v-14.4c0-13.1-.2-14.6-2-16.4-2-2-3.3-2-103.5-2S91 96 89 98zm58 20v10H99v-20h48v10zm79 0v10h-67v-20h67v10zm60 .6v10.7l-7.7-.7c-4.2-.3-15-.6-24-.6H238v-20h48v10.6zm24.3 24.7c3.9 2 6.6 4.2 8.5 7 1.6 2.3 10.4 21 19.7 41.6 10.7 23.5 17.7 37.8 18.9 38.6 1.3.8 21.1 3.3 51.6 6.5 27.2 2.8 51.1 5.5 53 6 4.3 1.2 10.6 5.3 12 8 1 1.9.7 2-7.9 2-15.9 0-17.1 1.5-17.1 22.5 0 21.4.9 22.5 19 22.5h11v27h-12.5l-3-5.2c-6.8-11.6-21.1-22.7-35-27.1-9.9-3.1-27.1-3.1-37 0-13.9 4.4-28.2 15.5-35 27.1l-3 5.2h-163l-3-5.2c-6.8-11.6-21.1-22.7-35-27.1-9.9-3.1-27.1-3.1-37 0-13.9 4.4-28.2 15.5-35 27.1l-3 5.2H61v-82.1c0-61.6.3-83.2 1.2-86.3 1.5-5 9.9-13.7 14.8-15.3 2.6-.9 32.9-1.2 115.5-1l112 .2 5.8 2.8zM49 249v49h-7.7c-8.9 0-13-1.8-16.3-7.2-1.9-3.1-2-5.1-2-41.3 0-42.4 0-42.7 6.9-47.2 2.8-1.9 4.7-2.3 11.2-2.3H49v49zm430 26.5V286h-18v-21h18v10.5zm-332.5 28c8.5 2.3 17 7.1 23.4 13.6 24.8 24.8 17.6 66.4-14.2 81.4-18.9 9.1-40.5 5.9-55.7-8.1-10.4-9.7-15.6-20.4-16.6-34.4-1.8-23.7 14.3-46.1 37.7-52.4 7.2-1.9 18.1-2 25.4-.1zm276 0c8.5 2.3 17 7.1 23.4 13.6 24.8 24.8 17.6 66.4-14.2 81.4-18.9 9.1-40.5 5.9-55.7-8.1-10.4-9.7-15.6-20.4-16.6-34.4-1.8-23.7 14.3-46.1 37.7-52.4 7.2-1.9 18.1-2 25.4-.1zm-350 35.2c-1.2 3.3-1.7 17.8-.7 23l.9 5.3H51v-30h11.1c10.2 0 11.1.1 10.4 1.7zm276.1.5c-1.3 4.5-1.8 17.4-.8 22.5l.9 5.3H195.3l.9-5.3c1-5.1.5-18-.8-22.5l-.6-2.2h154.4l-.6 2.2zM489 352v15H471.3l.9-5.3c1-5 .5-17.8-.8-22.5-.6-2.2-.5-2.2 8.5-2.2h9.1v15z"/>
  <path d="M80.2 160.3c-2.2 2.3-2.2 2.8-2.2 35 0 31.4.1 32.8 2 34.7 2 2 3.3 2 125.3 2 118.3 0 123.5-.1 125-1.8 1-1 1.7-3 1.7-4.3 0-3.2-28.5-65-30.7-66.7-1.3-.9-25-1.2-110.3-1.2H82.3l-2.1 2.3zM148 195v25H90v-50h58v25zm83 0v25h-71v-50h71v25zm73.5-2.8c5.5 12.2 10.5 23.4 11.2 25l1.2 2.8H243v-50h25.8l25.7.1 10 22.1zM220.7 301.8c-2.2 2.4-2.1 6.5.1 8.5 2.4 2.2 10 2.2 13 .1 1.4-1 2.2-2.6 2.2-4.4 0-3.9-3.2-6-9.1-6-3.2 0-5.1.6-6.2 1.8zM246 302c-1.1 1.1-2 2.9-2 4s.9 2.9 2 4c1.9 1.9 3.3 2 51.8 2 54.9 0 54.2.1 54.2-6s.7-6-54.2-6c-48.5 0-49.9.1-51.8 2zM123.7 325.4c-16 5.7-23.4 24.9-15.6 40.4 3.2 6.5 6.6 9.9 13.3 13.5 5.9 3.1 19.3 3.1 25.2 0 6.7-3.6 10.1-7 13.3-13.5 3.6-7.2 4.1-15.4 1.4-23.4-2.2-6.6-10.1-14.5-16.7-16.7-5.9-2-15.6-2.1-20.9-.3zm19.3 12.8c5.9 4.1 7.5 7.2 7.5 14.6 0 5.4-.4 7.3-2.3 10-7.2 10-22.8 9.3-29-1.3-1.8-3.2-2.2-5.1-1.9-9.8.6-9.8 6.9-15.7 16.7-15.7 4.3 0 6.5.6 9 2.2zM399.7 325.4c-16 5.7-23.4 24.9-15.6 40.4 3.2 6.5 6.6 9.9 13.3 13.5 5.9 3.1 19.3 3.1 25.2 0 6.7-3.6 10.1-7 13.3-13.5 3.6-7.2 4.1-15.4 1.4-23.4-2.2-6.6-10.1-14.5-16.7-16.7-5.9-2-15.6-2.1-20.9-.3zm19.3 12.8c5.9 4.1 7.5 7.2 7.5 14.6 0 5.4-.4 7.3-2.3 10-7.2 10-22.8 9.3-29-1.3-1.8-3.2-2.2-5.1-1.9-9.8.6-9.8 6.9-15.7 16.7-15.7 4.3 0 6.5.6 9 2.2z"/>
</svg>