<svg version="1.0" xmlns="http://www.w3.org/2000/svg" width="682.667" height="682.667" viewBox="0 0 512 512">
  <path d="M92 28.6c-9.8 2.6-18 7.4-26.2 15.5-6.3 6.1-8.5 9.2-11.7 16C45.3 79 46 91.9 57 114.5c11.4 23.4 35.7 56.8 43.7 60.1 8.7 3.7 14.4.8 25-12.8 18.5-23.7 31-44.5 36.3-60.5 3-9 3.2-10.6 2.7-19.3-.7-15.5-6.1-27.3-17.5-38.7-7-7-18.6-13.3-28-15.2-7.3-1.5-20.6-1.3-27.2.5zm26.1 32.8c2.1.9 5.3 3.3 7.2 5.3 5.4 5.4 7.2 9.7 7.2 17.8 0 6.3-.4 7.9-4.3 15.5-2.4 4.6-8.1 14.2-12.8 21.3l-8.5 12.9-1.8-2.4c-10.8-13.9-24-37.8-24.8-45-1.1-9.7 5.5-20.9 15.1-25.5 4.2-2 6.3-2.3 12.1-2.1 4 .2 8.6 1.1 10.6 2.2zM132 199.2c-2.5 1.3-5.5 3.8-6.7 5.7-4.3 6.5-2.3 16.8 4.1 21.4l3.1 2.2 66 .5c65.9.5 66 .5 72.4 2.8 7.4 2.7 15.1 7.5 19.8 12.4 10.9 11.3 15.7 29.3 11.8 44.3-4.1 15.5-14.7 27.8-29.3 33.7l-5.7 2.3-76 .6c-68.1.5-76.6.7-81.9 2.2-15.5 4.6-25.5 10.1-36.2 20.1-39.2 36.3-31.7 99.9 14.9 127.2 3.4 2 10.2 5 15.2 6.7l9 3.2 116.3.3c106.3.2 116.6.1 119.8-1.4 5-2.4 7.7-6.8 8.2-13.3.5-7-2.2-11.5-8.8-14.8l-4.4-2.3H231.9c-108.2 0-111.9-.1-118-2-16.2-5-29.3-19.2-32.8-35.8-4.4-20.8 6-42.7 24.9-52.2 11-5.5 8-5.3 89.5-5.9l76-.6 9-3.2c21.9-7.6 37.5-21.2 47-40.8 5.6-11.4 7.4-18.5 8.1-31 2.1-37.9-22-70.9-59.9-81.8-6.9-2-10-2.1-73.2-2.4l-66-.4-4.5 2.3z"/>
  <path d="M393.5 337.2c-2.7.5-8.7 2.7-13.3 4.8-6.8 3.2-9.9 5.5-16.1 11.7-11.6 11.7-17.1 24.6-17.1 39.8 0 9.8 2.1 17 8.9 31 9.7 19.8 35 55.4 42 59 3.9 1.9 10.4 1.9 14.6-.1 4.9-2.3 23.2-25.9 34.5-44.4 18.5-30.5 21.2-49.3 10.2-71.2-4.5-9-15.1-19.9-23.9-24.6-11.9-6.3-26.7-8.5-39.8-6zm20.4 32.4c10.1 2.9 17.5 13.1 17.6 23.9 0 5.2-.7 7.4-4.6 15.5-5.4 11.2-20.6 34.3-22 33.5-1.9-1.2-17.1-25.2-21.2-33.3-7.1-14.5-5.9-25.5 4-34.2 7.6-6.7 16.1-8.4 26.2-5.4z"/>
</svg>