<svg version="1.0" xmlns="http://www.w3.org/2000/svg" width="682.667" height="682.667" viewBox="0 0 512 512">
  <path d="M94.8 33.4c-5.6 2.3-17.2 9.9-19.7 13-1.7 2-2.4 2.1 9.4-1.4 5.5-1.6 10.6-3 11.3-3 .9 0 1.2 2.9 1.2 11.5v11.4l-3.2.5c-1.8.3-5.4.8-7.9 1.1-10.8 1.4-24.5 10.9-30.6 21.3-5.6 9.4-6.3 13.7-6.3 36.2 0 22.5.7 27.1 6 36.5l2.7 5-17.3 30c-9.6 16.5-17.7 31.4-18 33.2-.9 5 1.3 9.8 7 15 9.5 8.7 24.4 14.4 38.1 14.5 10.2.1 16.1-1.7 20.3-6.2 2.3-2.5 69-115.1 78.3-132.1.6-1.3-.8-2.8-6.9-7.4-4.2-3.2-10.5-7.1-13.9-8.8-5.5-2.7-6.4-3.6-7.9-7.6-3.9-10.6-12.7-20.7-22.3-25.5l-5.2-2.7.3-15.2c.3-15 .3-15.2 2.6-15.5 3.1-.5 2.4-2.1-1.8-4.4-4.6-2.4-9.3-2.2-16.2.6zM97 71.5c0 2.3-.4 2.5-4.3 2.5-11 0-23.2 5.6-31.8 14.7-6 6.4-6.3 5.4-.6-2.3 7.4-10.1 20.5-17.2 32-17.3 4.4-.1 4.7.1 4.7 2.4zm18.8 3.4c4.3 2.2 13.2 11.3 15.6 15.9 2.5 4.8 1.9 4.9-1.4.4-3.3-4.6-9.2-9.3-15.7-12.5-2.7-1.3-4.3-2.8-4.3-3.9 0-2.3 1.2-2.3 5.8.1zM97 85.9v5.8l-6.7.5c-14.8 1.2-27.8 9.8-37 24.4-1 1.6-1.1 1.4-.6-1.6 1.7-10 8.6-21 16.9-26.9 5.9-4.3 16.5-8.1 22.7-8.1H97v5.9zm18.2-.3C118.4 87.3 128 95.8 128 97c0 .9-12 0-15.2-1.2-2.6-1-2.8-1.5-2.8-6.4 0-5.9.5-6.2 5.2-3.8zM97 99.8c0 4.1-.5 5.3-3.1 7.8-4.4 4.2-10.6 13.2-17.9 26.1-3.5 6.2-6.7 11.3-7.1 11.3-1.6 0-10.1-10.4-12.5-15.3l-2.6-5.3 2.7-5.6c6.5-13.3 22.1-23.4 36.8-23.7L97 95v4.8zm-30.5 50c-.4 1.1-.8 1.2-2 .2-1.5-1.2-8.5-11.4-8.5-12.4 0-.3 2.5 2 5.5 5.1 3.2 3.4 5.3 6.3 5 7.1zm-5.9 3.3c2.2 2.3 2.4 2.9 1.3 5.3-.7 1.4-1.5 2.6-1.9 2.6-1.9 0-5.9-9-7.5-17-.7-3.4-.6-3.4 2.5 1.5 1.8 2.7 4.3 6.2 5.6 7.6zM224.7 48.4c-10.4 4.3-17.5 11.7-21.1 21.7-3.2 8.7-6.5 7.7 43.3 13.6 24.4 2.9 44.6 5.1 44.9 4.8.9-.9 2.1-12 1.4-12.6-.4-.4-4.9-1.7-10-2.9l-9.3-2.2-2.5-5c-3.4-6.7-10.3-13.4-17.2-16.6-8.3-3.9-21.3-4.3-29.5-.8zM427.5 129.2c-18.1 32.1-33.4 58.9-34 59.6-1 1.1-5.8-4.4-25.4-29.2-13.3-16.8-24.5-30.7-25-31-.9-.6-63.8 61.4-67 66.1l-2.2 3.3H512l-1.8-4.3c-.9-2.4-12.3-31-25.2-63.5C472.1 97.6 461.2 71 460.9 71c-.4 0-15.4 26.2-33.4 58.2zM202.3 91.2c1.1 12.8 7.6 22.8 18.9 28.9 6 3.2 6.8 3.4 16.3 3.4 8.9 0 10.6-.3 15.6-2.8 9.5-4.6 18-15.4 19.5-24.4l.6-3.9-11.9-1.3c-6.5-.7-22.5-2.5-35.7-4l-23.9-2.7.6 6.8z"/>
  <path d="M182 126.9c-11.6 3.8-17.5 10.4-31.7 35.7-14.9 26.6-25.3 46-25.3 47.1.1.8 64 38.7 64.5 38.1.1-.2 5.1-9.3 11-20.3 6-11 11-20.2 11.3-20.5.2-.3 1.6 1.1 3.1 2.9 16.9 22.1 38.6 38.1 63 46.6l8 2.8.6 5.1c.3 2.8 4.6 51.6 9.6 108.5 4.9 56.9 9.1 103.6 9.3 103.8.2.2 3.4.1 7-.3l6.7-.7-.5-4.6c-.4-2.5-4.7-51.4-9.7-108.5-8.4-97.8-8.9-104-7.2-105 6.2-3.5 11.1-14.2 9.9-21.9-.9-5.5-4-10.8-7.9-13.4-1.8-1.2-6.6-3.4-10.7-4.9-4.1-1.4-9.7-3.8-12.5-5.2-19.2-9.6-36.8-28.6-47-50.7-8.5-18.4-9.8-20.6-14.4-24.7-2.5-2.2-7.5-5.5-11.1-7.1-5.4-2.6-7.9-3.2-15-3.4-4.7-.1-9.6.1-11 .6z"/>
  <path d="M116.7 224.7c-1.9 3.8-4 8.6-4.7 10.8-1.8 5.9-27.5 57.6-37.5 75.5-16.2 29-32.9 56-34.5 56-.4 0-6.3 8.4-13 18.7-6.7 10.4-15.5 23.7-19.6 29.7-6.2 8.9-7.3 11.1-6.2 12.1 1 1 57.5 36.5 66.5 41.9.8.4 2.3-.9 4.3-4 4.6-7.3 4-9.8-4.2-17.3l-4.7-4.3-3 2.1c-2.6 1.9-3 1.9-4.2.5-1.2-1.4-.9-2 1.6-3.9 2.5-2 2.7-2.6 1.5-4-1.2-1.4-1.5-1.4-3.6.6-2 1.8-2.6 2-3.9.9-1.4-1.2-1.3-1.6 1-4 1.6-1.7 2.3-3.3 1.9-4.3-.5-1.5-.8-1.5-3.1.3-2 1.5-2.9 1.7-3.9.9-2.1-1.8-1.7-2.5 2.5-4.4 2.2-1 4.9-2.7 5.9-3.9 2.6-2.7 21.2-32.4 21.2-33.7 0-1.1 12.7-24.6 38.8-72.2l18.6-33.8 3.5 3.5c2 1.9 7.7 6 12.6 9.2 12.9 8.2 25.4 18.6 37.4 30.8 8.6 8.8 10.2 10.9 9.7 12.8-.3 1.3-3.6 13.9-7.1 28.1-3.6 14.2-7 26.6-7.5 27.5-.5.9-2.3 8.9-4 17.7-1.7 8.8-4.9 23.8-7.2 33.3-2.2 9.5-3.8 17.5-3.4 17.9.9.9 77.9 15.4 79.3 14.8 1.7-.6 2.7-10.8 1.3-13.5-1-2-12.6-8-15.3-8-.7 0-2 1.4-2.9 3-1.1 2-2.2 2.8-3.2 2.4-2-.8-2-1.7-.1-5.3.8-1.6 1.1-3.1.8-3.5-1.4-1.3-3.4-.5-4.5 1.9-1.2 2.7-1.6 2.9-3.6 1.6-1.2-.7-1.1-1.4.3-4.1 1.4-2.7 1.5-3.4.3-4.1-.9-.6-2-.1-3.3 1.5-2 2.4-4.5 2.5-4.5.2 0-.7.9-2.1 2.1-3.2 3.6-3.3 4.7-6.5 8.8-27.7 2.2-11.4 7.4-33.9 11.5-50 8.3-32.5 9.6-40.4 7.3-45.8-4.1-9.9-34.7-41.1-54.5-55.7-3.9-3-7.2-5.6-7.2-5.8 0-.3.9-2.2 2-4.4l2-3.9-2.2-1.5c-3.9-2.5-62-36.6-62.4-36.6-.2 0-1.9 3-3.7 6.7z"/>
</svg>