<svg version="1.0" xmlns="http://www.w3.org/2000/svg" width="682.667" height="682.667" viewBox="0 0 512 512">
  <path d="M468 11v11h-7.5c-4.7 0-8.7.6-10.4 1.5-3.7 1.9-5.4 6.4-3.9 10.5 1.5 4.4 5.4 6 14.3 6h7.5l-.2 31.7-.3 31.8-8.6.3c-7.7.2-8.9.5-11 2.8-3.2 3.5-3 9.1.6 12.1 2.3 2 3.7 2.3 11.1 2.3h8.4v64h-7.5c-4.7 0-8.7.6-10.4 1.5-6.2 3.2-5.9 12.4.5 15.1 1.8.8 6.5 1.4 10.4 1.4h7v62.7l-8.6.5c-7.6.4-8.8.7-11.1 3.1-3.7 3.6-3.6 9.2.2 12.4 2.3 2 3.7 2.3 11.1 2.3h8.4v64h-8.1c-4.4 0-8.9.5-10.1 1.1-2.8 1.5-5 7.2-3.9 10.1 1.8 4.8 4.6 6.1 13.6 6.6l8.5.5V468l-51.2-.2-51.3-.3-.3-7.5c-.3-8.6-1.4-11.4-5.2-13-3.6-1.5-7.6-.4-10 2.7-1.6 2.1-2 4.1-2 10.4v7.9h-63v-7c0-4.3-.6-8.2-1.5-9.9-2.7-5.3-10.2-6.3-14.2-1.9-1.4 1.5-1.9 4-2.2 10.4l-.3 8.4H204v-7.9c0-6.3-.4-8.3-2-10.4-3.7-4.6-10.8-4.4-14 .6-.7 1.2-1.6 5.7-1.8 10l-.5 7.7-31.1-.2-31.1-.3-.3-7.5c-.3-8.6-1.4-11.4-5.2-13-3.6-1.5-7.6-.4-10 2.7-1.6 2.1-2 4.1-2 10.4v7.9H43v-6.4c0-3.4-.5-7.7-1.1-9.5-2.1-6-10.3-7.7-14.5-2.9-1.5 1.5-2 4-2.3 10.4l-.3 8.4H0v44h512V0h-44v11z"/>
  <path d="M408.7 10.7c-.3.5-11.6 25.3-25.2 55.3-13.6 30-25.8 56.6-27.2 59.2-1.7 3.1-3.8 5.3-6.1 6.4-3.4 1.6-4.4 1.5-33.1-3.1-17.9-2.9-30.8-4.6-32.4-4.1-1.5.3-4 1.9-5.6 3.4-1.6 1.5-23.7 38.7-49.1 82.7-25.4 44-47.1 81.5-48.3 83.2-2.6 3.9-7.2 6.3-11.9 6.3-1.8 0-15.1-1.8-29.6-4-29.5-4.5-33.7-4.7-39.1-2.2-4.8 2.3-87.2 70.1-90 74.1-3.2 4.4-4.3 12-4 25.7.4 12 .5 12.4 3.2 15.1l2.7 2.8h393l2.7-2.8 2.8-2.7.3-193.8c.2-106.5 0-195.6-.3-198-.6-3.9-1.7-5.3-2.8-3.5zM126.7 37.1c-3.7 1.4-4.4 5-1.9 9.1C126 48 131.4 54 137 59.5l10 10L81.6 135c-36.5 36.5-66 66.7-66.6 68.3-1.6 4.4-1.2 10.7 1 15.2 1.2 2.5 8.3 10.3 17.8 19.6 12.4 12.3 16.6 15.8 19.8 16.7 5 1.5 5.8 1.5 10.9.1 3.4-.9 13.3-10.3 69.7-66.7l65.7-65.6 12 11.7c9.9 9.7 12.4 11.7 15 11.7 6.2 0 6.1.4 6.1-49.9 0-43.7-.1-45.6-2-49.7-1.2-2.4-3.9-5.4-6.2-7l-4.1-2.9-45.6-.2c-29.2-.1-46.6.2-48.4.8z"/>
</svg>