<svg version="1.0" xmlns="http://www.w3.org/2000/svg" width="682.667" height="682.667" viewBox="0 0 512 512">
  <path d="M492.5 55.2c-2.5 1.4-2.3 1.2-11.8 13.8-23.1 30.5-39.6 69.1-49.1 114.5-4.5 21.8-8.6 56.6-8.6 73.9 0 7.5.1 7.9 3.3 11.1 4.1 4.1 10.2 5.5 24.7 5.5 8.1 0 11 .3 11 1.2 0 .7-2.9 33-6.6 71.8-7.3 77.8-7.3 74.5-1.1 83.6 2.4 3.6 4.8 5.7 9.7 8.2 6 3.1 7.1 3.4 13.5 3 11.2-.7 19.1-6.1 23.4-15.9 2.1-4.6 2.1-5.7 2.1-186.5l.1-181.9-2.2-1.8c-2.4-2-5.5-2.2-8.4-.5zm-3.7 201.3c-.2.2-11.5.4-25.3.6l-25 .4.3-8.5c.8-22.5 4.8-51.5 10.4-74.5 6.8-28.5 20.5-61.7 33.5-81.2l5.8-8.8.3 85.9c.1 47.3.1 86 0 86.1zm.2 87c0 78.9.2 76.6-6.2 80.5-4.2 2.5-7.4 2.5-11.6 0-6.7-4.1-6.7-1 .4-78 3.6-38.2 6.7-70.5 7-71.8.4-1.9 1.1-2.2 5.4-2.2h5v71.5z"/>
  <path d="M471.8 407c-2.4 2.5-2.9 3.6-2.3 5.8.8 3.4 3.3 5.9 6.7 6.7 2.2.6 3.3.1 5.8-2.3 3.9-4 3.9-7.3-.1-10.6-4-3.4-6.4-3.3-10.1.4zM10 72c-1.9 1.9-2 3.3-2 47.8 0 49.6.2 51.7 5.6 62.4 5.5 10.8 18.8 21.7 30.2 24.7l4.2 1.2V277h-4.9c-3.3 0-5.6.6-7.2 1.8-2.2 1.8-2.4 3.8-8.1 69.3-3.5 39.7-5.7 70.9-5.5 76 .2 6.9.8 9.7 3.1 14.2 3.4 6.9 10 13.7 16.3 16.8 5.7 2.8 17.4 3.7 23.7 1.9 10.8-3.1 20.2-13.2 23.3-25.2l1.7-6.7-6.1-71.8-6.2-71.8-2.6-2.2c-1.9-1.7-3.9-2.3-7.1-2.3H64l.2-34.6.3-34.6 5.6-1.8c11.3-3.4 21.6-12.3 27.7-23.8 5.9-11 6.2-14.1 6.2-62.8 0-43.1 0-44.2-2.1-46.8-2.5-3.2-7.5-3.5-11-.7l-2.4 1.9-.3 38.1-.3 38.1H76v-37.4c0-36.3-.1-37.4-2.1-40C71.3 69.3 66 69 63 72c-1.9 1.9-2 3.3-2 40v38H51v-38c0-36.7-.1-38.1-2-40-1.2-1.2-3.3-2-5.5-2s-4.3.8-5.5 2c-1.9 1.9-2 3.3-2 40v38H23v-38c0-36.7-.1-38.1-2-40-1.2-1.2-3.3-2-5.5-2s-4.3.8-5.5 2zm76.5 97.9c-.7 2.2-1.9 5-2.6 6.2-2.3 4.3-9.4 11.1-14.4 13.7-4.3 2.3-6.3 2.7-13.5 2.7-7 0-9.4-.4-13.5-2.4-8.4-4.2-15.2-12.5-18-21.9l-.6-2.2h64l-1.4 3.9zm-23 124.3c.2.7 2.9 30.5 5.9 66.1 3.8 45.7 5.1 65.8 4.5 68.1-1.3 4.7-4.9 9.7-8.8 12.3-7.1 4.8-18.9 2.3-23.9-5.1-4.6-6.7-4.6-6.3 1.3-75.8 3-35.9 5.5-65.6 5.5-66.1 0-1.3 15-.8 15.5.5zM240 128.1c-19.6 2.2-35.4 6.9-53.5 15.9-45 22.3-76.9 67.2-83.6 117.7-1.7 12.7-.6 40.3 2 51.8 6.9 29.7 19.5 53.5 39.5 74.3 14.9 15.5 27.1 24.3 45.6 33 27.9 13.2 56.2 17.7 86.3 13.7 18-2.4 32.5-6.9 48.9-15.1s28.8-17.5 42.3-31.5c20-20.8 32.7-44.7 39.6-74.4 3.3-14.3 3.8-41.3 1-57.4-5.6-32.7-19.8-59.9-43.5-83.6-8-8-15.5-14.4-22.2-18.8-30.8-20.4-67.3-29.6-102.4-25.6zm38.8 17.4c18.6 3 37.8 10.7 54.5 21.7 17.4 11.6 37.3 34 46.7 52.7 11.5 22.9 16.8 51.8 14.1 76.1-3.1 27-11.7 48.8-27.8 70.2-20.1 26.6-49.3 45-83.4 52.4-11.9 2.6-41.9 2.6-53.8 0-56.6-12.3-98.6-55-109.8-111.3-2.6-13.2-2.3-38.5.5-52 4.1-18.9 10.8-34.8 21.9-51.6 6.1-9.2 25.6-28.7 35.3-35.4 15.8-10.7 37.8-19.8 55.1-22.7 11.4-1.9 35.2-2 46.7-.1z"/>
  <path d="M239.5 175.7c-22.1 3.5-43.9 14.6-60 30.8-23.4 23.3-35.1 58.8-30.1 91.2 6.9 45.2 40 80.1 84.8 89.4 8.7 1.8 12.6 2 25.3 1.6 18.8-.6 27.7-2.8 44-10.7 29.2-14.3 48.9-38.6 57-70.5 12.4-48.6-11.6-100.1-56.8-122-15.3-7.4-25.3-9.6-44.7-10-9.1-.2-17.8-.1-19.5.2zm38.5 16.4c32.3 7.7 57.6 32.4 67.2 65.6 2 6.8 2.3 10 2.2 24.3 0 15-.3 17.3-2.7 25.3-10.1 32.9-34.6 56-68.5 64.4-9.2 2.3-31.2 2.3-40.4 0-33.9-8.4-58.4-31.5-68.5-64.4-2.4-8-2.7-10.3-2.7-25.3-.1-14.3.2-17.5 2.2-24.5 10.4-36.2 40.3-62.2 77.7-67.5 8.5-1.2 23.7-.3 33.5 2.1z"/>
</svg>