<svg version="1.0" xmlns="http://www.w3.org/2000/svg" width="682.667" height="682.667" viewBox="0 0 512 512">
  <path d="M420.1 22.5c-2.4.7-6.1 3.1-8.3 5.2-5.7 5.6-6.8 10.4-6.8 30.4v16.8l-8.3-6.3c-26.7-20.1-58.2-34.5-92.2-42-29.1-6.4-68.3-6.2-99.5.5-22.5 4.9-52.6 17.2-72.9 29.8-26.1 16.2-53 41.9-69.9 66.8-53 78.2-54.4 181-3.5 259.3 12.8 19.6 31.9 41 48.8 54.7 40.9 33.1 91.3 51.7 142 52.6 11.1.2 12.3 0 16.5-2.3 6.7-3.8 10.3-9.6 10.8-17.4.5-7.4-1.6-12.5-7.2-17.3-4.7-4.2-8-5-22.6-5.7-94.1-4.3-170.3-75.4-182-169.6-1.3-10.9-1.3-33.1 0-44 5.3-42.5 23.4-80.8 52.4-110.8C176 62.6 264.8 46.9 340.5 84c11.3 5.5 26.3 14.8 33 20.4l3 2.5-20.3.1c-17.9 0-20.7.2-24 1.9-16.2 8.3-16.2 29.9 0 38.2 3.5 1.8 6.4 1.9 51.3 1.9 51.9 0 51.7 0 57.9-5.8 1.6-1.5 3.7-4.5 4.7-6.7 1.7-3.7 1.9-7.4 1.9-51.1V38.2l-2.8-5.3c-4.8-9.2-15.3-13.6-25.1-10.4z"/>
  <path d="M246 109.2c-2.5 1.4-5.8 4.4-7.5 6.7l-3 4.3-.3 69.6c-.2 50.6 0 70.8.9 73.7.9 3.3 6.9 9.9 34.7 37.8 18.5 18.5 35.4 35 37.6 36.5 3.4 2.4 4.9 2.7 11.6 2.7 6.7 0 8.1-.3 11.6-2.7 5.9-4.2 8.7-9 9.2-15.8.8-10.6.8-10.7-32.9-44.5L277 246.4l-.2-63-.3-63.1-2.7-3.9c-4.4-6.2-9-8.8-16.7-9.2-5.5-.3-7.4.1-11.1 2zM460.5 236.8c-14.1 6.8-16.7 24.8-5 35 4.7 4.2 7.4 5.2 13.6 5.2 12.4 0 21.2-8.7 21.2-21.1 0-7.1-3.6-13.7-9.5-17.6-5.4-3.6-14.5-4.2-20.3-1.5zM444.5 318.5c-14.1 7.6-16.7 25.1-5.2 35.2 4.6 4 9.7 5.6 16.3 5.1 19.2-1.6 25.6-27 9.6-38.2-3.5-2.5-5.5-3.1-11-3.4-4.8-.2-7.6.2-9.7 1.3zM400.6 386.2c-6 1.6-13 9.1-14.5 15.5-2.3 9.6 2.1 19.3 11 23.7 8.9 4.4 17.6 3 24.6-4 15.3-15.3-.2-40.9-21.1-35.2zM330.5 433.2c-7.1 2.5-12.6 9.2-14 17-1.2 6.3 1.8 14 7.1 18.7 12.9 11.4 32.3 4.3 35-12.8 2.4-15.2-13.4-28.1-28.1-22.9z"/>
</svg>