<svg version="1.0" xmlns="http://www.w3.org/2000/svg" width="682.667" height="682.667" viewBox="0 0 512 512">
  <path d="M247 1c-5.5 1.4-7.9 2.6-40 20-29.5 16-30.7 16.8-39 25-5.4 5.4-9.8 10.7-11.7 14.5-3.1 5.9-7.3 19-7.3 23 0 1.7-9.3 6.1-58.7 28C58 125.8 29.1 139.1 26 141.1 13.8 149 3.4 164.7 1.1 178.8.3 183.6 0 229.6.2 340l.3 154.5 2.8 4.7c3.1 5.3 7.9 9.4 13.4 11.4 5.6 2 473 2 478.6 0 5.5-2 10.3-6.1 13.4-11.4l2.8-4.7.3-154.5c.2-110.4-.1-156.4-.9-161.2-1.7-10.7-7.7-21.8-16.2-30.3-8.7-8.7-9.2-9-81.8-41.1l-49.5-21.9-1.7-8c-2.6-12.8-7.6-21.6-17.6-31.5-8.3-8.2-9.6-9-39-25-16.7-9.1-32.4-17.3-35-18.3C264.9.5 252.2-.4 247 1zm21 18.8c3 1.6 17.4 9.3 32 17.2 22.2 12.1 27.5 15.4 32.6 20.5 6.1 6 11.4 15.2 12.9 22.2l.7 3.3H165.8l.7-3.3c1.5-7 6.8-16.2 12.9-22.2 5.2-5.1 10.4-8.4 34.4-21.4 37.5-20.3 34.6-19 42.2-19 5.2-.1 7.6.5 12 2.7zm-86 79.6c0 .6-32.7 26.6-33.4 26.6-.9 0-17-12.9-17.4-13.9-.1-.4 6-3.5 13.5-6.8l13.8-6.2h11.8c6.4-.1 11.7.1 11.7.3zm49.9 0c-.2.2-32.8 26.3-72.4 58l-72 57.6H76.1c-6.3 0-11.2-.2-11-.4.2-.2 32.8-26.3 72.4-58l72-57.6h11.4c6.3 0 11.2.2 11 .4zm94.4 18.6 23.8 19.1-5.6 4.5c-3.4 2.8-6 4.2-6.8 3.8-1.1-.7-55.1-43.7-57.1-45.5-.6-.5 4-.9 10.5-.9h11.4l23.8 19zm40.8-12.8c7.7 3.4 13.8 6.5 13.7 6.9-.4.9-16.5 13.9-17.4 13.9-.7 0-33.4-26-33.4-26.6 0-.2 5.2-.4 11.6-.4h11.6l13.9 6.2zm-76.5 23.9c18.7 14.9 34 27.4 34.1 27.7.3.9-67.3 54.7-68.7 54.7-1.4 0-69-53.8-68.7-54.7.3-.9 67.8-54.8 68.7-54.8.4 0 16 12.2 34.6 27.1zm-166.1-.9c5.7 4.6 10.4 8.5 10.4 8.8.1.3-2.4 2.5-5.4 4.9-3.8 2.9-6 4-6.8 3.3-7.6-5.8-23.3-18.5-23.4-19.1-.3-.7 11.5-6 13.5-6.1.7 0 6 3.7 11.7 8.2zm282.3-5.5c3.4 1.5 6.1 3.1 6 3.4-.2.4-25.1 20.6-55.5 44.8l-55.1 44.2-11.2-.3-11.1-.3 58.8-47.2c32.3-25.9 59.5-47.2 60.3-47.2.8-.1 4.3 1.1 7.8 2.6zM96 145.2c7.7 6.2 13.9 11.5 13.8 11.9-.2.4-16.4 13.6-36 29.3L38 215H17v-16.8c0-14.2.3-17.8 2-22.6 2.9-8.6 9-16.6 15.9-20.8 4.3-2.7 44.1-20.7 45.9-20.8.7 0 7.5 5 15.2 11.2zm354.1-3.1c28.3 12.5 32 14.8 38 23.5 5.8 8.4 6.9 13.8 6.9 32.6V215h-21l-35.8-28.6c-19.6-15.7-35.7-29-35.7-29.5 0-1.2 26.7-22.7 28.2-22.8.7-.1 9.4 3.5 19.4 8zm-247 49.1 29 23.3-11.1.3-11.2.3-23.9-19.2c-13.2-10.5-23.8-19.3-23.7-19.4 2.1-2 10.5-8.4 11.1-8.5.4 0 13.8 10.5 29.8 23.2zm214.6-.1c15.3 12.2 28.2 22.6 28.8 23 .5.5-4.1.9-10.6.9h-11.4l-23.9-19.1c-13.1-10.5-23.4-19.5-23-19.9 3.6-3.5 10.1-7.9 11.1-7.5.7.2 13.7 10.4 29 22.6zM166 201.2l16.5 13.3-16.7.3c-9.2.1-24.4.1-33.9 0l-17.3-.3 16.5-13.2c9-7.3 16.9-13.2 17.4-13.3.6 0 8.4 6 17.5 13.2zm214.8 0 16.6 13.3-16.6.3c-9.2.1-24.5.1-34 0l-17.3-.3 16.5-13.3c9.1-7.2 16.9-13.2 17.4-13.2.4 0 8.3 6 17.4 13.2zM25 231.7c0 .5-1.8 3.5-4 6.8l-4 6V231h4c2.2 0 4 .3 4 .7zm58.9 11.5c-4.5 6.8-8.5 12.7-8.9 13.2-.6.6-12.4-15.7-17.4-24.2-.6-.9 3.1-1.2 16.9-1.2H92l-8.1 12.2zm66 0c-4.5 6.8-8.5 12.7-8.9 13.2-.6.6-12.4-15.7-17.4-24.2-.6-.9 3.1-1.2 16.9-1.2H158l-8.1 12.2zm73.5-11c-2.5 4.3-16.5 24.8-16.9 24.8-.4 0-14.4-20.5-16.9-24.8-.6-.9 3.1-1.2 16.9-1.2 13.8 0 17.5.3 16.9 1.2zm36.5.3c1.6.8 3.1 2.2 3.5 3 1 2.7.7 39.5-.4 41.4-1.6 3.1-6.5 4.6-10 3.1-1.7-.7-3.5-2.1-4-3.1-.6-1-1-10.5-1-21.1 0-20.2.2-21.3 4.5-23.6 2.7-1.5 4.1-1.5 7.4.3zm150.2 1.4 2.9 2.9v38.4l-2.9 2.9-2.9 2.9H280.5v-50H407.2l2.9 2.9zm36.3-1.7c-.4.7-4.4 6.6-8.8 13.2-9.1 13.3-8.3 13.7-8.8-4.2l-.3-10.2h9.3c7.2 0 9.1.3 8.6 1.2zm48.6 11.5c0 7.3-.4 12.3-.9 11.8-.8-.9-13.8-20.4-15.5-23.3-.5-.9 1.3-1.2 7.8-1.2h8.6v12.7zM58 263.5c0 .3-7.7.5-17 .5H24l8.7-13 8.6-13 8.4 12.5c4.5 6.8 8.3 12.7 8.3 13zm66 0c0 .3-7.7.5-17 .5H90l8.7-13 8.6-13 8.4 12.5c4.5 6.8 8.3 12.7 8.3 13zm58.9-11.8L191 264h-35l8.7-13c4.7-7.2 9-12.7 9.3-12.3.4.5 4.4 6.3 8.9 13zm289 0L480 264h-35l8.7-13c4.7-7.2 9-12.7 9.3-12.3.4.5 4.4 6.3 8.9 13zM231 257.5v6.5h-9l4.2-6.5c2.4-3.5 4.4-6.5 4.6-6.5.1 0 .2 2.9.2 6.5zm4.5 28.3c2.7 4.1 4.8 6 10.9 9.7 1.5.9 1.6 2.8 1.4 14.3l-.3 13.2-20.2-13.5c-11.2-7.4-20.5-13.5-20.8-13.5-.3 0-11.3 7.2-24.5 16s-24.4 16-25 16c-.6 0-11.8-7.2-25-16s-24.2-16-24.5-16c-.3 0-11.4 7.2-24.6 16.1-13.2 8.8-24.6 15.9-25.4 15.7-.7-.2-10.1-6.2-20.9-13.3l-19.6-13V281l107.8.1h107.7l3 4.7zM495 301.5c0 11.3-.2 20.5-.5 20.5s-9.3-5.9-20.1-13.1c-10.8-7.2-20.2-12.8-20.9-12.5-.8.3-10.2 6.4-20.9 13.6L413 323V296.3l5-3.2c3-1.9 6.1-5 7.6-7.7l2.6-4.4H495v20.5zm-132 78V462h-99V297h99v82.5zm33 0V462h-16V297h16v82.5zm-271-52.2 17 11.4-17.3 11.5-17.2 11.5-16.6-11.1c-9.2-6.1-16.7-11.5-16.8-12-.3-.8 31.7-22.6 33.2-22.6.4 0 8.4 5.1 17.7 11.3zm99.2-.1c9.3 6.1 16.5 11.5 16.1 11.8-.4.4-8.2 5.7-17.3 11.7l-16.5 11-16.6-11.1c-9.2-6.1-16.7-11.5-16.8-12-.3-.9 31.7-22.6 33.3-22.6.5 0 8.5 5 17.8 11.2zm247.3-.2c9.1 6.1 16.5 11.4 16.5 11.8-.1 1-32.3 22.2-33.8 22.2-2.1 0-34.5-22.1-33.6-23 1.9-1.7 32.9-22 33.7-22 .4 0 8.2 5 17.2 11zm-441 3.3 12.5 8.4-13 8.6-13 8.7v-17c0-9.3.2-17 .5-17s6.2 3.8 13 8.3zm51.9 34.6c12.5 8.4 23.3 15.4 24.1 15.7.7.3 12.2-6.7 25.4-15.5 13.2-8.9 24.4-16.1 24.8-16.1.4 0 11.7 7.3 25 16.1 14.5 9.7 24.8 15.9 25.7 15.6.8-.3 10.3-6.5 21-13.7l19.6-13v42H17v-10.3l.1-10.2 19.7-13.2c10.8-7.3 20.4-13.1 21.2-12.9.9.2 11.8 7.1 24.4 15.5zm371.1 15.7c.7.3 10.1-5.3 20.9-12.5 10.8-7.2 19.8-13.1 20.1-13.1.3 0 .5 9.2.5 20.5V396h-82v-42l19.6 13c10.7 7.2 20.1 13.3 20.9 13.6zM75.9 449.2l-18.1 36.3L39.9 450c-9.8-19.5-17.8-35.8-17.8-36.3-.1-.4 16.1-.7 35.9-.7h36l-18.1 36.2zm99.4-.7c-9.8 19.5-18 35.5-18.3 35.5-.3 0-8.5-16-18.3-35.5L121 413h72l-17.7 35.5zm72.7-7.8c0 15.2-.2 27.4-.4 27.2-.2-.2-6.5-12.7-14-27.7L220 413h28v27.7zm179.4-.5c-7.5 15-13.8 27.5-14 27.7-.2.2-.4-12-.4-27.2V413h28l-13.6 27.2zm67.5 0v27.3L481.5 441c-7.4-14.6-13.4-26.8-13.4-27.3-.1-.4 6-.7 13.4-.7H495l-.1 27.2zM125.5 459c9.6 19.2 17.5 35.2 17.5 35.5 0 .3-6.1.5-13.5.5H116l-.2-16.3-.3-16.2h-16l-.3 16.2L99 495H85.5c-7.4 0-13.5-.2-13.5-.5 0-1 35-70.5 35.5-70.5.3 0 8.4 15.7 18 35zm99 0c9.6 19.2 17.5 35.2 17.5 35.5 0 .3-6.1.5-13.5.5H215l-.2-16.3-.3-16.2h-16l-.3 16.2-.2 16.3h-13.5c-7.4 0-13.5-.2-13.5-.5 0-1 35-70.5 35.5-70.5.3 0 8.4 15.7 18 35zm247.9.7L490 495h-28v-33h-16v33h-13.5c-7.4 0-13.5-.2-13.5-.5 0-1 35.1-70.7 35.4-70.4.2.2 8.3 16.3 18 35.6zm-441.5 9L44 495H32.5c-16.6 0-15.5 2-15.5-28.7 0-13.5.2-24.4.4-24.2.2.2 6.3 12.2 13.5 26.6zM396 487v8H264v-16h132v8z"/>
</svg>