<svg xmlns="http://www.w3.org/2000/svg" version="1.0" width="900px" height="900px"  viewBox="150.5 359.5 698.3 698" fill="none">
  <path fill="#fff" d="M488 360a354 354 0 0 0-267 139c-12 17-41 60-46 71-13 27-19 48-21 87a350 350 0 0 0 48 238l7 14c5 8 54 57 68 68 52 43 114 69 184 79a354 354 0 0 0 371-236 296 296 0 0 0 9-174c-6-29-16-59-31-93-23-54-55-96-93-121-11-7-30-17-31-16l-11-7c-49-35-116-53-187-49zm-16 83a328 328 0 0 1 74 16c11 2 14 5 26 18a161 161 0 0 1 40 110c-2 7-15 30-21 36-6 7-20 14-27 15-5 0-5 0-9-4l-4-6 6-16c9-18 12-28 13-42 0-12-1-20-7-31-6-12-21-30-31-37-5-4-22-11-31-13-11-2-37-2-48-1-18 2-35 8-44 15a104 104 0 0 0-25 25c-3 0-13 24-20 43-6 20-8 31-8 45 1 13 3 20 8 32 13 24 36 48 56 59l17 10a299 299 0 0 0 102 36c9 3 10 3 15 2l34-1 28-1 17-5 18-5c5 0 6 3 6 11-1 6-1 7-9 21-9 14-15 26-17 32-1 6 2 11 16 31 15 19 27 36 34 49 5 9 7 11 14 12 6 2 8 4 8 9 0 4-3 8-7 10-5 3-6 2-11-3a435 435 0 0 0-133-83c-17-9-44-18-82-28-30-9-35-9-44-4l-8 6c-4 5-21 52-21 59 0 6-3 9-8 11-3 1-4 1-6-1-5-3-7-8-7-19a715 715 0 0 0-10-55l-9-23c-7-16-9-27-6-50 3-16 1-23-7-31-6-7-9-8-36-9l-26-2c-8-2-19-11-19-15 0-2 8-17 13-23 8-12 13-26 14-50 1-17 5-39 9-49l7-14 13-19c10-15 29-38 40-49 5-5 11-10 17-13 9-6 11-6 24-9l20-4c10-1 35 0 51 1zm218 167 8 7 13 11c17 11 53 32 64 37 8 4 24 15 27 20 5 7 5 13-1 17-5 4-15 2-39-10a405 405 0 0 0-36-17l-8-4-10-6-4-3c-2-3-12 2-17 8l-6 7-19 16-15 14c-12 11-20 15-29 15-9-1-16-7-15-13l8-11 18-21 25-26c15-14 16-16 21-29 6-14 7-16 15-12zM525 890l35 15c17 6 21 10 23 17s-1 14-7 18c-8 5-10 5-24-1l-18-9c-12-8-29-11-40-6-6 2-15 8-16 11l-4 5c-3 1-6 5-8 8l-10 10c-5 4-6 5-12 5a368 368 0 0 1-109-25c-15-6-31-16-31-19l7-27 4-1c5 0 19 4 29 9 12 5 29 11 44 15 8 2 12 2 21 2h12l9-4 21-13c16-11 19-12 33-16 18-5 19-5 42 6z"/>
</svg>